<?xml version="1.0" encoding="utf-8"?>
<!-- Generator: Adobe Illustrator 26.2.1, SVG Export Plug-In . SVG Version: 6.00 Build 0)  -->
<svg version="1.1" id="圖層_1" xmlns="http://www.w3.org/2000/svg" xmlns:xlink="http://www.w3.org/1999/xlink" x="0px" y="0px"
	 viewBox="0 0 320 320" style="enable-background:new 0 0 320 320;" xml:space="preserve">
<style type="text/css">
	.st0{opacity:0.05;enable-background:new    ;}
</style>
<g>
	<path class="st0" d="M160,0C71.8,0,0,71.8,0,160s71.8,160,160,160s160-71.8,160-160S248.2,0,160,0z M280,219.4v31.2h-12.5v-31.2
		H280z M267.5,205.3v-31.2H280v31.2H267.5z M285.2,250.6v-31.2h12.5v16c-2.9,5.3-6.1,10.3-9.5,15.2H285.2z M285.1,205.3v-31.2h12.5
		v31.2H285.1z M303,205.1v-31.2h12.5v7.8c-1.1,8-2.8,15.8-5.1,23.4H303z M305.4,219.3c-0.8,1.9-1.6,3.8-2.5,5.7v-5.7H305.4z
		 M52.8,219.4v31.2H40.3v-31.2H52.8z M40.3,205.2V174h12.5v31.2H40.3z M35.2,205.2h-0.1H22.7V174h12.5V205.2z M35.2,219.5v31.2h-3.3
		c-3.3-4.7-6.4-9.6-9.2-14.6v-16.6H35.2z M17.5,225.9c-1-2.1-1.9-4.2-2.8-6.4h2.8V225.9z M17.4,205.3H9.7c-2-6.8-3.6-13.8-4.8-20.9
		v-10.3h12.5V205.3z M54.4,276.1h211.2c-27.9,25.4-65,40.9-105.6,40.9C119.4,317,82.3,301.5,54.4,276.1z M267.8,274.1H52.2
		c-1.5-1.4-2.9-2.8-4.4-4.3h15.3v-1.1V156H3.1C5.2,71.2,74.7,3,160,3c85.2,0,154.7,68.1,156.9,152.8h-59.5v113.9h14.8
		C270.8,271.2,269.3,272.7,267.8,274.1z"/>
	<path class="st0" d="M201.7,101v-9.2h-37.6v-41c1.7,0.9,3.6,1.4,5.6,1.5h0.1c3.9,0.1,10.7,2.8,12.6,2.8h0.1
		c0.7-0.2,0.7-0.6,0.7-0.7c0.2-1.1,0.3-2.1,0.2-3.2c0-1.5,0-3.4,0-5.3c0-1.8,0-3.3,0-4.6c0-0.6,0-1.1-0.1-1.5c0-0.2,0-0.3,0-0.5
		c0-0.1,0-0.1,0-0.2c0-0.1,0.1-0.2-0.5-0.7c-1.4-0.7-6.4-2.8-9.6-2.9c-0.3,0-0.6,0-0.9,0.1c-0.2,0-0.4,0-0.6,0
		c-2.4,0-7.1-1.7-9.1-2.4c-0.4-0.2-0.7-0.3-1.1-0.3c-0.5,0.1-0.8,0.5-0.8,1V48c0.1,0.8,0.2,0.6,0.3,0.7v42.9h-43.4v10.2h84.3
		L201.7,101z"/>
	<polygon class="st0" points="103.5,269.5 113.5,269.5 113.5,219.1 207.7,219.1 207.7,269.5 217.5,269.5 217.5,206.3 103.5,206.3 	
		"/>
	<path class="st0" d="M212.4,202.3h8.3v67.3h33.6v-0.9V115.9h-41.9V202.3z M239.2,201.5h-10.5v-10.4h10.5V201.5z M239.2,188h-10.5
		v-10.4h10.5V188z M228.7,136.5h10.4v10.4h-10.4V136.5z M228.5,150.3H239v10.4h-10.5V150.3z M228.5,164.1H239v10.4h-10.5V164.1z
		 M228.5,204.3H239v10.4h-10.5V204.3z M228.4,217.7h10.5V228h-10.5V217.7z M228.4,231.4h10.5v10.4h-10.5V231.4z"/>
	<path class="st0" d="M107.9,115.9H66v153.2h34.2v-66.8h7.7V115.9z M82.1,150.3h10.5v10.4H82.1V150.3z M82.1,164.1h10.5v10.4H82.1
		V164.1z M82,241.8v-10.4h10.4v10.4H82z M92.5,228H82v-10.4h10.5V228z M92.6,214.7H82.1v-10.4h10.5V214.7z M92.8,201.5H82.3v-10.4
		h10.5V201.5z M92.8,188H82.3v-10.4h10.5V188z M92.8,146.9H82.3v-10.4h10.5V146.9z"/>
	<path class="st0" d="M118.4,267h84.3v-41.9h-84.3V267z M141.8,263.9H135v-19.4h6.8V263.9z M169.6,263.9h-6.8v-19.4h6.8V263.9z
		 M197.4,263.9h-6.8v-19.4h6.8V263.9z M192.9,230.1h4.6v4.5h-4.6V230.1z M192.9,236.5h4.6v4.5h-4.6V236.5z M184.8,230.1h6.7V241
		h-6.7V230.1z M179.1,230.1h4.6v4.5h-4.6V230.1z M179.1,236.5h4.5v4.5h-4.5V236.5z M179.1,244.5h6.8v19.4h-6.8V244.5z M165.1,230.1
		h4.6v4.5h-4.6V230.1z M165.1,236.5h4.6v4.5h-4.6V236.5z M157,230.1h6.7V241H157V230.1z M151.3,230.1h4.6v4.5h-4.6V230.1z
		 M151.3,236.5h4.5v4.5h-4.5V236.5z M151.3,244.5h6.8v19.4h-6.8V244.5z M137.3,230.1h4.6v4.5h-4.6V230.1z M137.3,236.5h4.6v4.5h-4.6
		V236.5z M129.2,230.1h6.7V241h-6.7V230.1z M123.5,230.1h4.6v4.5h-4.6V230.1z M123.5,236.5h4.5v4.5h-4.5V236.5z M123.5,244.5h6.8
		v19.4h-6.8V244.5z"/>
	<path class="st0" d="M110.4,200.3h5.4v-22.9h23.7v22.9h9v-22.9h23.7v22.9h9v-22.9h23.7v22.9h5.2v-87.6h6.2V103H104.4v9.7h6V200.3z
		 M181.2,126.5h23.7v28h-23.7V126.5z M148.5,126.5h23.7v28h-23.7V126.5z M115.8,126.5h23.7v28h-23.7V126.5z"/>
	<polygon class="st0" points="19,133.8 19,153.7 34.7,153.7 34.7,144.4 43.9,144.4 43.9,153.7 63.1,153.7 63.1,127.7 62.9,127.7 	
		"/>
	<polygon class="st0" points="276.1,144.7 285.3,144.7 285.3,153.7 301.2,153.7 301.2,133.9 257.2,129.3 257.2,153.7 276.1,153.7 	
		"/>
</g>
</svg>
