<?xml version="1.0" encoding="utf-8"?>
<!-- Generator: Adobe Illustrator 26.2.1, SVG Export Plug-In . SVG Version: 6.00 Build 0)  -->
<svg version="1.1" id="圖層_1" xmlns="http://www.w3.org/2000/svg" xmlns:xlink="http://www.w3.org/1999/xlink" x="0px" y="0px"
	 viewBox="0 0 40 40" style="enable-background:new 0 0 40 40;" xml:space="preserve">
<style type="text/css">
	.st0{fill:#FFFFFF;}
</style>
<path class="st0" d="M32,18.1c0,0.3-0.1,0.4-0.3,0.6C31.5,18.9,31.3,19,31,19h-2.6v1.6H31c0.1,0,0.3,0,0.4,0.1
	c0.1,0,0.3,0.1,0.4,0.2c0.1,0.1,0.2,0.2,0.2,0.3c0.1,0.1,0.1,0.3,0.1,0.4c0,0.1,0,0.3-0.1,0.4s-0.1,0.2-0.2,0.3
	c-0.1,0.1-0.2,0.2-0.4,0.2c-0.1,0-0.3,0.1-0.4,0.1h-3.5c-0.3,0-0.5-0.1-0.7-0.3s-0.3-0.4-0.3-0.6v-6.7c0-0.5,0.4-0.9,1-0.9H31
	c0.3,0,0.5,0.1,0.7,0.3c0.2,0.2,0.3,0.4,0.3,0.6c0,0.3-0.1,0.4-0.3,0.6s-0.4,0.3-0.7,0.3h-2.6v1.6H31C31.5,17.2,32,17.5,32,18.1
	L32,18.1z M24.6,22.2c-0.1,0-0.2,0-0.3,0c-0.2,0-0.3,0-0.4-0.1c-0.2-0.1-0.3-0.2-0.4-0.3l-3.7-4.7v4.1c0,0.3-0.1,0.4-0.3,0.6
	c-0.2,0.2-0.4,0.3-0.6,0.3c-0.3,0-0.4-0.1-0.6-0.3c-0.2-0.2-0.3-0.4-0.3-0.6v-6.6c0-0.3,0.1-0.4,0.3-0.6c0.2-0.2,0.4-0.3,0.7-0.3
	c0.3,0,0.5,0.2,0.7,0.4l3.7,4.7v-4.1c0-0.5,0.4-0.9,1-0.9c0.5,0,1,0.4,1,0.9v6.7c0,0.2-0.1,0.4-0.2,0.5C24.9,22,24.8,22.2,24.6,22.2
	L24.6,22.2z M15.7,22.3c-0.3,0-0.5-0.1-0.7-0.3s-0.3-0.4-0.3-0.6v-6.7c0-0.5,0.4-0.9,1-0.9c0.5,0,1,0.4,1,0.9v6.7
	c0,0.3-0.1,0.4-0.3,0.6C16.2,22.2,16,22.3,15.7,22.3L15.7,22.3z M13,22.3H9.4c-0.3,0-0.5-0.1-0.7-0.3c-0.2-0.2-0.3-0.4-0.3-0.6v-6.7
	c0-0.3,0.1-0.4,0.3-0.6c0.2-0.2,0.4-0.3,0.7-0.3c0.3,0,0.4,0.1,0.6,0.3c0.2,0.2,0.3,0.4,0.3,0.6v5.8H13c0.3,0,0.5,0.1,0.7,0.3
	s0.3,0.4,0.3,0.6c0,0.3-0.1,0.4-0.3,0.6C13.5,22.2,13.2,22.3,13,22.3L13,22.3z M20,4.1c-9.9,0-18,6.2-18,13.7
	c0,6.8,6.4,12.4,15.1,13.5c0.6,0.1,1.4,0.4,1.6,0.8c0.2,0.4,0.1,1.1,0.1,1.5L18.5,35c-0.1,0.4-0.4,1.7,1.6,0.9
	c1.9-0.8,10.4-5.7,14.2-9.8c2.6-2.6,3.8-5.4,3.8-8.4C38,10.2,30,4.1,20,4.1L20,4.1z"/>
</svg>
