<?xml version="1.0" encoding="utf-8"?>
<!-- Generator: Adobe Illustrator 26.2.1, SVG Export Plug-In . SVG Version: 6.00 Build 0)  -->
<svg version="1.1" id="圖層_1" xmlns="http://www.w3.org/2000/svg" xmlns:xlink="http://www.w3.org/1999/xlink" x="0px" y="0px"
	 viewBox="0 0 144 144" style="enable-background:new 0 0 144 144;" xml:space="preserve">
<style type="text/css">
	.st0{fill:#1877F2;}
</style>
<path class="st0" d="M132,72.4c0-33.1-26.9-60-60-60c-33.1,0-60,26.9-60,60c0,29.9,21.9,54.8,50.6,59.3V89.7H47.4V72.4h15.2V59.1
	c0-15,9-23.3,22.7-23.3c6.6,0,13.4,1.2,13.4,1.2v14.8h-7.6c-7.5,0-9.8,4.6-9.8,9.4v11.3H98l-2.7,17.3h-14v41.9
	C110.1,127.1,132,102.3,132,72.4"/>
<path class="st0" d="M-194.7-194.7"/>
</svg>
