<?xml version="1.0" encoding="utf-8"?>
<!-- Generator: Adobe Illustrator 26.2.1, SVG Export Plug-In . SVG Version: 6.00 Build 0)  -->
<svg version="1.1" id="圖層_1" xmlns="http://www.w3.org/2000/svg" xmlns:xlink="http://www.w3.org/1999/xlink" x="0px" y="0px"
	 viewBox="0 0 40 40" style="enable-background:new 0 0 40 40;" xml:space="preserve">
<style type="text/css">
	.st0{fill:#FFFFFF;}
</style>
<path class="st0" d="M26.8,37.2V23.9h4.7l0.7-5.2h-5.4v-3.3c0-1.5,0.4-2.5,2.7-2.5h2.9V8.2C31,8.1,29.6,8,28.2,8c-4.1,0-7,2.4-7,6.9
	v3.8h-4.7v5.2h4.7v13.4H4c-0.5,0-1-0.2-1.4-0.6S2,35.8,2,35.3V4.7c0-0.5,0.2-1,0.6-1.4C3,3,3.5,2.8,4,2.8h32c0.5,0,1,0.2,1.4,0.6
	C37.8,3.7,38,4.2,38,4.7v30.7c0,0.5-0.2,1-0.6,1.4C37,37,36.5,37.2,36,37.2H26.8L26.8,37.2z"/>
</svg>
