<svg width="27" height="28" viewBox="0 0 27 28" fill="none" xmlns="http://www.w3.org/2000/svg">
<path d="M19.0687 14.2192C20.0218 13.267 20.7144 12.0861 21.0804 10.7896C21.4464 9.49311 21.4734 8.12437 21.159 6.81441L23.9659 5.61066C24.0515 5.57396 24.1448 5.5591 24.2376 5.56739C24.3304 5.57569 24.4196 5.60688 24.4973 5.65818C24.5751 5.70948 24.6388 5.77928 24.6829 5.8613C24.727 5.94333 24.7501 6.03503 24.75 6.12816V22.1504L16.875 25.5254L10.125 22.1504L3.03413 25.189C2.94853 25.2257 2.85516 25.2406 2.7624 25.2323C2.66964 25.224 2.58039 25.1928 2.50266 25.1415C2.42493 25.0902 2.36116 25.0204 2.31706 24.9384C2.27296 24.8564 2.24992 24.7647 2.25 24.6715V8.65041L5.77013 7.14178C5.52245 8.40806 5.59002 9.71582 5.96689 10.9498C6.34377 12.1838 7.01837 13.3062 7.93125 14.218L13.5 19.7879L19.0687 14.2192ZM17.478 12.6284L13.5 16.6042L9.522 12.6273C8.73548 11.8406 8.1999 10.8383 7.98297 9.74717C7.76605 8.65606 7.87753 7.52514 8.30332 6.49739C8.7291 5.46965 9.45008 4.59123 10.3751 3.97321C11.3001 3.35519 12.3875 3.02533 13.5 3.02533C14.6125 3.02533 15.6999 3.35519 16.6249 3.97321C17.5499 4.59123 18.2709 5.46965 18.6967 6.49739C19.1225 7.52514 19.2339 8.65606 19.017 9.74717C18.8001 10.8383 18.2645 11.8406 17.478 12.6273V12.6284Z" fill="white"/>
</svg>
