<?xml version="1.0" encoding="utf-8"?>
<!-- Generator: Adobe Illustrator 26.2.1, SVG Export Plug-In . SVG Version: 6.00 Build 0)  -->
<svg version="1.1" id="圖層_1" xmlns="http://www.w3.org/2000/svg" xmlns:xlink="http://www.w3.org/1999/xlink" x="0px" y="0px"
	 viewBox="0 0 40 40" style="enable-background:new 0 0 40 40;" xml:space="preserve">
<style type="text/css">
	.st0{fill:#FFFFFF;}
</style>
<path class="st0" d="M37.2,10.6C38,13.6,38,20,38,20s0,6.4-0.8,9.5c-0.5,1.7-1.8,3.1-3.5,3.5C30.6,33.8,20,33.8,20,33.8
	S9.4,33.8,6.3,33c-1.7-0.5-3.1-1.8-3.5-3.5C2,26.4,2,20,2,20s0-6.4,0.8-9.4C3.3,8.8,4.6,7.5,6.3,7C9.4,6.2,20,6.2,20,6.2
	s10.6,0,13.7,0.8C35.4,7.5,36.7,8.8,37.2,10.6L37.2,10.6z M16.4,26l10.8-6l-10.8-6V26z"/>
</svg>
