<svg width="172" height="55" viewBox="0 0 172 55" fill="none" xmlns="http://www.w3.org/2000/svg">
<g clip-path="url(#clip0_238_29894)">
<path d="M73.8936 50.4855H75.6695C75.9492 50.4692 76.2291 50.5131 76.4909 50.614C76.7526 50.715 76.9903 50.8709 77.1882 51.0714C77.3861 51.2719 77.5398 51.5125 77.6392 51.7773C77.7386 52.0422 77.7814 52.3253 77.7649 52.6081C77.7649 54.0193 76.8256 54.8846 75.6505 54.8846H73.8936V50.4855ZM74.7454 54.1578H75.506C76.3882 54.1578 76.8446 53.5925 76.8446 52.6196C76.8446 51.7391 76.3844 51.2007 75.5288 51.193H74.7264L74.7454 54.1578Z" fill="#18354F"/>
<path d="M81.91 52.9658H79.5979V54.1195H82.161L82.0583 54.8693H78.746V50.4856H82.0317V51.2316H79.5979V52.216H81.9062L81.91 52.9658Z" fill="#18354F"/>
<path d="M86.8233 53.1312C86.8233 52.3621 86.8233 51.5623 86.8499 51.0855C86.6484 51.8545 86.1654 53.3004 85.6558 54.8847H84.8953C84.515 53.5273 83.9674 51.8738 83.7544 51.0855C83.7886 51.5969 83.819 52.4736 83.819 53.2235V54.8847H83.0585V50.4856H84.283C84.7356 51.8738 85.2109 53.2619 85.3326 53.8041C85.5113 53.1543 85.9829 51.8084 86.4164 50.4856H87.6485V54.8847H86.8233V53.1312Z" fill="#18354F"/>
<path d="M92.9573 52.6698C92.9573 53.8964 92.1968 54.977 90.7669 54.977C89.4169 54.977 88.6259 53.9541 88.6259 52.6698C88.6118 52.3729 88.658 52.0762 88.7615 51.7981C88.865 51.5199 89.0237 51.266 89.2278 51.0521C89.4318 50.8382 89.677 50.6687 89.9482 50.5541C90.2195 50.4395 90.511 50.3822 90.8049 50.3856C92.1777 50.3895 92.9573 51.4623 92.9573 52.6698ZM89.5348 52.6698C89.5348 53.5388 89.9721 54.2579 90.8277 54.2579C91.6834 54.2579 92.0789 53.4888 92.0789 52.6929C92.0789 51.8969 91.672 51.1547 90.7897 51.1547C89.9074 51.1547 89.5196 51.8546 89.5196 52.6582L89.5348 52.6698Z" fill="#18354F"/>
<path d="M97.8174 53.5389C97.6159 54.3079 97.0569 54.9963 95.84 54.9963C94.4253 54.9963 93.718 53.9272 93.718 52.689C93.718 51.4508 94.5013 50.3818 95.8856 50.3818C97.0987 50.3818 97.6957 51.1124 97.825 51.8431H96.9656C96.8942 51.6131 96.7468 51.415 96.5481 51.2819C96.3493 51.1489 96.1114 51.089 95.8742 51.1124C95.0642 51.1124 94.6154 51.7777 94.6154 52.6506C94.6154 53.5235 95.0375 54.2464 95.878 54.2464C96.1147 54.2724 96.3529 54.2135 96.551 54.08C96.7491 53.9464 96.8945 53.7467 96.9618 53.5158L97.8174 53.5389Z" fill="#18354F"/>
<path d="M99.5401 53.1235V54.8847H98.6997V50.4856H100.814C101.712 50.4856 102.255 50.9586 102.255 51.7199C102.273 51.9512 102.211 52.1814 102.081 52.3724C101.951 52.5634 101.76 52.7036 101.54 52.7697C101.738 52.8428 102.149 53.0312 102.149 53.8157V54.0272C102.135 54.3152 102.152 54.604 102.198 54.8885H101.327C101.262 54.5896 101.239 54.2827 101.259 53.9772V53.831C101.259 53.3196 101.084 53.1273 100.457 53.1273L99.5401 53.1235ZM99.5401 52.416H100.62C101.145 52.416 101.381 52.2122 101.381 51.793C101.381 51.3739 101.137 51.1931 100.62 51.1931H99.5287L99.5401 52.416Z" fill="#18354F"/>
<path d="M104.145 53.7772L103.738 54.8847H102.864L104.526 50.4856H105.602L107.359 54.8847H106.439L106.009 53.7772H104.145ZM105.75 53.0274C105.336 51.9545 105.138 51.42 105.043 51.1047C104.955 51.4239 104.72 52.1199 104.385 53.0274H105.75Z" fill="#18354F"/>
<path d="M108.519 51.2316H107.058V50.4856H110.827V51.2316H109.371V54.8847H108.519V51.2316Z" fill="#18354F"/>
<path d="M112.462 50.4856V54.8847H111.614V50.4856H112.462Z" fill="#18354F"/>
<path d="M117.577 53.5389C117.376 54.3079 116.817 54.9963 115.6 54.9963C114.185 54.9963 113.478 53.9272 113.478 52.689C113.478 51.4508 114.261 50.3818 115.645 50.3818C116.858 50.3818 117.455 51.1124 117.589 51.8431H116.725C116.655 51.6127 116.507 51.4141 116.308 51.281C116.11 51.1478 115.871 51.0883 115.634 51.1124C114.824 51.1124 114.375 51.7777 114.375 52.6506C114.375 53.5235 114.797 54.2464 115.641 54.2464C115.878 54.2723 116.115 54.2132 116.313 54.0796C116.51 53.946 116.655 53.7464 116.721 53.5158L117.577 53.5389Z" fill="#18354F"/>
<path d="M121.262 51.2316H119.798V50.4856H123.57V51.2316H122.114V54.8847H121.262V51.2316Z" fill="#18354F"/>
<path d="M125.206 50.4856V54.8847H124.358V50.4856H125.206Z" fill="#18354F"/>
<path d="M130.222 53.1312C130.222 52.3621 130.222 51.5623 130.248 51.0855C130.051 51.8545 129.564 53.3004 129.058 54.8847H128.297C127.917 53.5273 127.373 51.8738 127.157 51.0855C127.187 51.5969 127.221 52.4736 127.221 53.2235V54.8847H126.461V50.4856H127.689C128.142 51.8738 128.617 53.2619 128.739 53.8041C128.917 53.1543 129.389 51.8084 129.822 50.4856H131.055V54.8847H130.233L130.222 53.1312Z" fill="#18354F"/>
<path d="M135.447 52.9658H133.135V54.1195H135.698L135.595 54.8693H132.287V50.4856H135.568V51.2316H133.135V52.216H135.447V52.9658Z" fill="#18354F"/>
<path d="M137.135 53.5812C137.261 54.0042 137.561 54.2887 138.276 54.2887C138.991 54.2887 139.181 54.0388 139.181 53.7158C139.181 53.3927 138.983 53.1697 138.071 53.0005C136.725 52.7506 136.458 52.2814 136.458 51.6854C136.458 50.8433 137.219 50.3972 138.135 50.3972C139.501 50.3972 139.858 51.1663 139.904 51.6547H139.048C138.983 51.4086 138.839 51.0817 138.109 51.0817C137.607 51.0817 137.325 51.2624 137.325 51.597C137.325 51.9315 137.489 52.0469 138.303 52.2007C139.824 52.4891 140.052 52.9928 140.052 53.6196C140.052 54.3618 139.512 54.9732 138.2 54.9732C136.979 54.9732 136.409 54.3772 136.299 53.5812H137.135Z" fill="#18354F"/>
<path d="M146.589 53.1312C146.589 52.3621 146.589 51.5623 146.616 51.0855C146.414 51.8545 145.931 53.3004 145.422 54.8847H144.661C144.281 53.5273 143.733 51.8738 143.52 51.0855C143.555 51.5969 143.585 52.4736 143.585 53.2235V54.8847H142.824V50.4856H144.049C144.501 51.8738 144.977 53.2619 145.099 53.8041C145.277 53.1543 145.749 51.8084 146.182 50.4856H147.414V54.8847H146.593L146.589 53.1312Z" fill="#18354F"/>
<path d="M149.464 50.4856V52.9774C149.464 53.981 149.97 54.2463 150.506 54.2463C151.103 54.2463 151.487 53.9541 151.487 52.9774V50.4856H152.335V52.9966C152.335 54.3655 151.647 54.9808 150.48 54.9808C149.312 54.9808 148.616 54.3963 148.616 53.0312V50.4856H149.464Z" fill="#18354F"/>
<path d="M153.94 53.5812C154.066 54.0042 154.366 54.2887 155.081 54.2887C155.796 54.2887 155.986 54.0388 155.986 53.7158C155.986 53.3927 155.788 53.1697 154.872 53.0005C153.529 52.7506 153.263 52.2814 153.263 51.6854C153.263 50.8433 154.024 50.3972 154.94 50.3972C156.306 50.3972 156.659 51.1663 156.705 51.6547H155.853C155.788 51.4086 155.64 51.0817 154.914 51.0817C154.408 51.0817 154.126 51.2624 154.126 51.597C154.126 51.9315 154.294 52.0469 155.104 52.2007C156.625 52.4891 156.857 52.9928 156.857 53.6196C156.857 54.3618 156.317 54.9732 155.005 54.9732C153.784 54.9732 153.214 54.3772 153.104 53.5812H153.94Z" fill="#18354F"/>
<path d="M160.979 52.9658H158.698V54.1195H161.261L161.158 54.8693H157.846V50.4856H161.131V51.2316H158.698V52.216H160.979V52.9658Z" fill="#18354F"/>
<path d="M162.942 50.4856V52.9774C162.942 53.981 163.447 54.2463 163.98 54.2463C164.577 54.2463 164.961 53.9541 164.961 52.9774V50.4856H165.813V52.9966C165.813 54.3655 165.124 54.9808 163.957 54.9808C162.789 54.9808 162.09 54.3963 162.09 53.0312V50.4856H162.942Z" fill="#18354F"/>
<path d="M170.787 53.1312C170.787 52.3621 170.787 51.5623 170.814 51.0855C170.612 51.8545 170.129 53.3004 169.619 54.8847H168.859C168.479 53.5273 167.931 51.8738 167.718 51.0855C167.748 51.5969 167.779 52.4736 167.779 53.2235V54.8847H167.018V50.4856H168.243C168.699 51.8738 169.174 53.2619 169.292 53.8041C169.471 53.1543 169.943 51.8084 170.372 50.4856H171.605V54.8847H170.787V53.1312Z" fill="#18354F"/>
<path d="M16.2915 27.5635H8.86448C8.62242 27.5635 8.39026 27.4663 8.2191 27.2932C8.04794 27.1202 7.95178 26.8854 7.95178 26.6407C7.95178 26.3959 8.04794 26.1612 8.2191 25.9881C8.39026 25.815 8.62242 25.7178 8.86448 25.7178H16.2991C16.5411 25.7178 16.7733 25.815 16.9445 25.9881C17.1156 26.1612 17.2118 26.3959 17.2118 26.6407C17.2118 26.8854 17.1156 27.1202 16.9445 27.2932C16.7733 27.4663 16.5411 27.5635 16.2991 27.5635H16.2915Z" fill="#18354F"/>
<path d="M59.7279 27.5635H58.2067C57.9646 27.5635 57.7325 27.4663 57.5613 27.2932C57.3902 27.1202 57.294 26.8854 57.294 26.6407C57.294 26.3959 57.3902 26.1612 57.5613 25.9881C57.7325 25.815 57.9646 25.7178 58.2067 25.7178H59.7279C59.9699 25.7178 60.2021 25.815 60.3732 25.9881C60.5444 26.1612 60.6405 26.3959 60.6405 26.6407C60.6405 26.8854 60.5444 27.1202 60.3732 27.2932C60.2021 27.4663 59.9699 27.5635 59.7279 27.5635Z" fill="#18354F"/>
<path d="M34.2943 6.57948C34.1741 6.57999 34.055 6.55649 33.9439 6.51034C33.8327 6.46418 33.7316 6.39628 33.6465 6.31054C33.5613 6.22479 33.4937 6.12288 33.4476 6.01066C33.4015 5.89844 33.3778 5.77812 33.3778 5.6566V0.922977C33.3928 0.68801 33.4957 0.467613 33.6655 0.306569C33.8354 0.145526 34.0595 0.0559082 34.2924 0.0559082C34.5252 0.0559082 34.7494 0.145526 34.9192 0.306569C35.0891 0.467613 35.192 0.68801 35.207 0.922977V5.6566C35.207 5.90136 35.1108 6.1361 34.9397 6.30917C34.7685 6.48225 34.5364 6.57948 34.2943 6.57948Z" fill="#18354F"/>
<path d="M18.4021 18.2885C18.2419 18.2893 18.0844 18.2468 17.9458 18.1655L11.8079 14.5816C11.5981 14.4593 11.445 14.2576 11.3823 14.0211C11.3195 13.7845 11.3522 13.5325 11.4733 13.3204C11.5943 13.1082 11.7937 12.9534 12.0276 12.8899C12.2616 12.8265 12.5108 12.8596 12.7206 12.982L18.8585 16.5658C19.0328 16.6673 19.169 16.8241 19.2461 17.0119C19.3232 17.1997 19.3368 17.408 19.2847 17.6044C19.2327 17.8009 19.118 17.9744 18.9584 18.0981C18.7988 18.2218 18.6032 18.2888 18.4021 18.2885Z" fill="#18354F"/>
<path d="M45.4367 8.04456C45.2767 8.04284 45.1198 8.00053 44.9803 7.9215C44.7711 7.79858 44.6187 7.59665 44.5566 7.36013C44.4946 7.12361 44.528 6.87186 44.6495 6.66023L46.22 3.90312C46.3411 3.69099 46.5405 3.53616 46.7744 3.4727C47.0083 3.40924 47.2576 3.44235 47.4674 3.56473C47.6772 3.68711 47.8303 3.88874 47.8931 4.12528C47.9558 4.36181 47.9231 4.61388 47.802 4.826L46.2277 7.58311C46.1478 7.72376 46.0326 7.84054 45.8936 7.92159C45.7547 8.00263 45.597 8.04505 45.4367 8.04456Z" fill="#18354F"/>
<path d="M24.6312 10.644C24.4708 10.6445 24.3132 10.6021 24.1742 10.521C24.0353 10.44 23.9201 10.3232 23.8402 10.1826L20.7979 4.826C20.738 4.72097 20.6991 4.60502 20.6835 4.4848C20.6679 4.36457 20.6758 4.2424 20.7069 4.12528C20.738 4.00816 20.7916 3.89838 20.8646 3.8022C20.9376 3.70602 21.0287 3.62533 21.1326 3.56473C21.2365 3.50413 21.3511 3.46481 21.47 3.44902C21.5889 3.43323 21.7097 3.44128 21.8256 3.4727C21.9414 3.50413 22.0499 3.55831 22.1451 3.63216C22.2402 3.70601 22.32 3.79809 22.3799 3.90312L25.4222 9.25969C25.5011 9.40021 25.5423 9.55916 25.5417 9.72076C25.5411 9.88236 25.4988 10.041 25.4188 10.1809C25.3389 10.3209 25.2241 10.4372 25.0859 10.5184C24.9478 10.5997 24.791 10.643 24.6312 10.644Z" fill="#18354F"/>
<path d="M54.6244 15.6929C54.4233 15.6931 54.2277 15.6262 54.0681 15.5025C53.9085 15.3788 53.7938 15.2052 53.7418 15.0088C53.6897 14.8124 53.7033 14.6041 53.7804 14.4163C53.8575 14.2285 53.9938 14.0717 54.1681 13.9702L55.8641 12.9819C55.968 12.9211 56.0827 12.8815 56.2017 12.8655C56.3207 12.8495 56.4417 12.8573 56.5577 12.8886C56.6737 12.9198 56.7825 12.9739 56.8778 13.0476C56.9732 13.1214 57.0532 13.2134 57.1134 13.3184C57.1736 13.4235 57.2127 13.5394 57.2285 13.6598C57.2444 13.7801 57.2366 13.9024 57.2057 14.0197C57.1748 14.137 57.1214 14.247 57.0485 14.3434C56.9755 14.4398 56.8845 14.5208 56.7806 14.5816L55.0808 15.5699C54.9422 15.6512 54.7846 15.6936 54.6244 15.6929Z" fill="#18354F"/>
<path d="M16.8201 22.8298C16.7393 22.829 16.6589 22.8187 16.5805 22.799L9.48434 20.8763C9.25035 20.8131 9.05077 20.6585 8.92953 20.4465C8.80829 20.2344 8.77532 19.9824 8.83785 19.7458C8.90038 19.5092 9.05331 19.3074 9.26298 19.1848C9.47265 19.0622 9.7219 19.0289 9.9559 19.0921L17.0558 21.0148C17.2703 21.0722 17.4567 21.2066 17.5803 21.393C17.7038 21.5793 17.756 21.8047 17.7271 22.0271C17.6982 22.2495 17.5902 22.4536 17.4233 22.6014C17.2563 22.7491 17.0419 22.8303 16.8201 22.8298Z" fill="#18354F"/>
<path d="M39.8655 6.52937C39.7859 6.53026 39.7065 6.51991 39.6297 6.49861C39.5138 6.46737 39.4052 6.41332 39.3099 6.33958C39.2147 6.26583 39.1348 6.17383 39.0747 6.06884C39.0147 5.96384 38.9757 5.84791 38.96 5.72766C38.9443 5.60742 38.9522 5.48523 38.9832 5.36808L39.9948 1.55734C40.0573 1.32073 40.2102 1.11894 40.4199 0.996342C40.6296 0.873747 40.8788 0.840392 41.1128 0.903623C41.3468 0.966854 41.5464 1.12149 41.6676 1.3335C41.7889 1.54552 41.8219 1.79755 41.7593 2.03416L40.7478 5.85643C40.6937 6.05072 40.5782 6.22173 40.4188 6.34327C40.2595 6.46482 40.0651 6.53018 39.8655 6.52937Z" fill="#18354F"/>
<path d="M21.0337 14.1508C20.9134 14.1508 20.7944 14.1267 20.6834 14.0798C20.5724 14.0329 20.4717 13.9643 20.3872 13.8778L15.6717 9.10954C15.5868 9.02395 15.5194 8.92229 15.4733 8.81036C15.4273 8.69843 15.4035 8.57843 15.4033 8.4572C15.4031 8.33598 15.4266 8.21589 15.4723 8.10383C15.518 7.99176 15.5851 7.8899 15.6698 7.80405C15.7544 7.71821 15.8549 7.65006 15.9656 7.6035C16.0763 7.55695 16.195 7.53289 16.3149 7.53272C16.4348 7.53254 16.5535 7.55624 16.6644 7.60247C16.7752 7.6487 16.8759 7.71654 16.9608 7.80213L21.6802 12.5742C21.8064 12.704 21.8921 12.8685 21.9265 13.0472C21.9608 13.2259 21.9424 13.4109 21.8734 13.579C21.8045 13.7472 21.6881 13.8911 21.5387 13.9928C21.3894 14.0945 21.2137 14.1494 21.0337 14.1508Z" fill="#18354F"/>
<path d="M50.5211 11.1516C50.3414 11.1505 50.166 11.0958 50.0169 10.9943C49.8677 10.8928 49.7516 10.7491 49.6829 10.5811C49.6143 10.4132 49.5962 10.2284 49.631 10.0501C49.6658 9.87182 49.7519 9.70786 49.8784 9.57882L51.6316 7.80227C51.7165 7.71642 51.8173 7.64833 51.9282 7.60187C52.0391 7.55541 52.158 7.53149 52.278 7.53149C52.3981 7.53149 52.517 7.55541 52.6279 7.60187C52.7388 7.64833 52.8396 7.71642 52.9245 7.80227C53.0094 7.88812 53.0768 7.99003 53.1227 8.10219C53.1687 8.21436 53.1923 8.33458 53.1923 8.45598C53.1923 8.57739 53.1687 8.6976 53.1227 8.80976C53.0768 8.92192 53.0094 9.02384 52.9245 9.10969L51.1676 10.8824C51.0829 10.9684 50.9821 11.0364 50.8711 11.0827C50.7601 11.1289 50.6411 11.1523 50.5211 11.1516Z" fill="#18354F"/>
<path d="M29.1148 8.02521C28.9139 8.02469 28.7187 7.9574 28.5593 7.83373C28.3999 7.71006 28.285 7.53684 28.2325 7.34073L26.8255 2.03416C26.7945 1.917 26.7867 1.79482 26.8024 1.67461C26.8181 1.55439 26.8571 1.43848 26.9172 1.3335C26.9772 1.22852 27.0571 1.13653 27.1523 1.06277C27.2475 0.989015 27.3561 0.934932 27.472 0.903623C27.5878 0.872315 27.7086 0.864386 27.8275 0.880294C27.9464 0.896202 28.061 0.935639 28.1649 0.996342C28.2687 1.05704 28.3597 1.13783 28.4326 1.23408C28.5055 1.33034 28.559 1.44018 28.59 1.55734L29.9971 6.86391C30.0281 6.98107 30.036 7.10326 30.0203 7.22351C30.0046 7.34375 29.9656 7.45968 29.9056 7.56468C29.8455 7.66968 29.7656 7.76168 29.6704 7.83542C29.5751 7.90916 29.4665 7.9632 29.3506 7.99444C29.2734 8.01389 29.1943 8.02422 29.1148 8.02521Z" fill="#18354F"/>
<path d="M57.2978 21.3301C57.076 21.3306 56.8616 21.2494 56.6947 21.1017C56.5277 20.954 56.4197 20.7498 56.3908 20.5274C56.3619 20.305 56.4141 20.0796 56.5377 19.8933C56.6612 19.707 56.8476 19.5725 57.0621 19.5151L58.6289 19.0921C58.8628 19.0289 59.1121 19.0622 59.3218 19.1848C59.5314 19.3074 59.6844 19.5092 59.7469 19.7458C59.8094 19.9824 59.7765 20.2344 59.6552 20.4465C59.534 20.6585 59.3344 20.8131 59.1004 20.8763L57.5336 21.2993C57.4568 21.3206 57.3775 21.331 57.2978 21.3301Z" fill="#18354F"/>
<path d="M67.6721 55.0001C67.5521 55.0006 67.4331 54.9771 67.3222 54.9309C67.2112 54.8847 67.1104 54.8167 67.0256 54.7309C66.9407 54.6451 66.8735 54.5432 66.8278 54.431C66.7821 54.3188 66.7589 54.1986 66.7594 54.0772V32.3164H1.82537V54.0772C1.82537 54.322 1.72922 54.5567 1.55805 54.7298C1.38689 54.9029 1.15476 55.0001 0.912698 55.0001C0.670638 55.0001 0.438482 54.9029 0.26732 54.7298C0.0961573 54.5567 4.08083e-08 54.322 0 54.0772V31.3897C0 31.1449 0.0961573 30.9102 0.26732 30.7371C0.438482 30.564 0.670638 30.4668 0.912698 30.4668H67.6721C67.9141 30.4668 68.1463 30.564 68.3174 30.7371C68.4886 30.9102 68.5847 31.1449 68.5847 31.3897V54.0772C68.5847 54.322 68.4886 54.5567 68.3174 54.7298C68.1463 54.9029 67.9141 55.0001 67.6721 55.0001Z" fill="#18354F"/>
<path d="M12.0855 54.9999C11.8435 54.9999 11.6113 54.9027 11.4402 54.7296C11.269 54.5565 11.1729 54.3218 11.1729 54.077V38.8072C11.1729 38.5624 11.269 38.3277 11.4402 38.1546C11.6113 37.9815 11.8435 37.8843 12.0855 37.8843C12.3276 37.8843 12.5597 37.9815 12.7309 38.1546C12.9021 38.3277 12.9982 38.5624 12.9982 38.8072V54.077C12.9987 54.1984 12.9755 54.3186 12.9298 54.4308C12.8841 54.543 12.8169 54.6449 12.732 54.7307C12.6472 54.8165 12.5464 54.8845 12.4354 54.9307C12.3244 54.9769 12.2055 55.0004 12.0855 54.9999Z" fill="#18354F"/>
<path d="M56.4993 54.9999C56.3793 55.0004 56.2604 54.9769 56.1494 54.9307C56.0384 54.8845 55.9376 54.8165 55.8528 54.7307C55.7679 54.6449 55.7007 54.543 55.655 54.4308C55.6093 54.3186 55.5861 54.1984 55.5866 54.077V38.8072C55.5866 38.5624 55.6827 38.3277 55.8539 38.1546C56.025 37.9815 56.2572 37.8843 56.4993 37.8843C56.7413 37.8843 56.9735 37.9815 57.1446 38.1546C57.3158 38.3277 57.4119 38.5624 57.4119 38.8072V54.077C57.4119 54.3218 57.3158 54.5565 57.1446 54.7296C56.9735 54.9027 56.7413 54.9999 56.4993 54.9999Z" fill="#18354F"/>
<path d="M20.969 54.9999C20.849 55.0004 20.7301 54.9769 20.6192 54.9307C20.5082 54.8845 20.4074 54.8165 20.3225 54.7307C20.2377 54.6449 20.1705 54.543 20.1248 54.4308C20.0791 54.3186 20.0558 54.1984 20.0563 54.077V38.8072C20.0563 38.5624 20.1525 38.3277 20.3237 38.1546C20.4948 37.9815 20.727 37.8843 20.969 37.8843C21.2111 37.8843 21.4432 37.9815 21.6144 38.1546C21.7856 38.3277 21.8817 38.5624 21.8817 38.8072V54.077C21.8817 54.3218 21.7856 54.5565 21.6144 54.7296C21.4432 54.9027 21.2111 54.9999 20.969 54.9999Z" fill="#18354F"/>
<path d="M29.8525 54.9999C29.7325 55.0004 29.6136 54.9769 29.5027 54.9307C29.3917 54.8845 29.2909 54.8165 29.206 54.7307C29.1212 54.6449 29.054 54.543 29.0083 54.4308C28.9626 54.3186 28.9393 54.1984 28.9398 54.077V38.8072C28.9398 38.5624 29.036 38.3277 29.2071 38.1546C29.3783 37.9815 29.6105 37.8843 29.8525 37.8843C30.0946 37.8843 30.3267 37.9815 30.4979 38.1546C30.6691 38.3277 30.7652 38.5624 30.7652 38.8072V54.077C30.7652 54.3218 30.6691 54.5565 30.4979 54.7296C30.3267 54.9027 30.0946 54.9999 29.8525 54.9999Z" fill="#18354F"/>
<path d="M38.7322 54.9999C38.4901 54.9999 38.258 54.9027 38.0868 54.7296C37.9157 54.5565 37.8195 54.3218 37.8195 54.077V38.8072C37.8195 38.5624 37.9157 38.3277 38.0868 38.1546C38.258 37.9815 38.4901 37.8843 38.7322 37.8843C38.9743 37.8843 39.2064 37.9815 39.3776 38.1546C39.5487 38.3277 39.6449 38.5624 39.6449 38.8072V54.077C39.6454 54.1984 39.6221 54.3186 39.5764 54.4308C39.5308 54.543 39.4635 54.6449 39.3787 54.7307C39.2938 54.8165 39.193 54.8845 39.0821 54.9307C38.9711 54.9769 38.8522 55.0004 38.7322 54.9999Z" fill="#18354F"/>
<path d="M47.6158 54.9999C47.3737 54.9999 47.1415 54.9027 46.9704 54.7296C46.7992 54.5565 46.7031 54.3218 46.7031 54.077V38.8072C46.7031 38.5624 46.7992 38.3277 46.9704 38.1546C47.1415 37.9815 47.3737 37.8843 47.6158 37.8843C47.8578 37.8843 48.09 37.9815 48.2611 38.1546C48.4323 38.3277 48.5284 38.5624 48.5284 38.8072V54.077C48.5289 54.1984 48.5057 54.3186 48.46 54.4308C48.4143 54.543 48.3471 54.6449 48.2623 54.7307C48.1774 54.8165 48.0766 54.8845 47.9656 54.9307C47.8547 54.9769 47.7358 55.0004 47.6158 54.9999Z" fill="#18354F"/>
<path d="M74.2396 45.2366C74.0883 45.2366 73.9433 45.1758 73.8363 45.0676C73.7293 44.9595 73.6692 44.8128 73.6692 44.6598V31.2011C73.6692 31.0481 73.7293 30.9014 73.8363 30.7932C73.9433 30.685 74.0883 30.6243 74.2396 30.6243H86.0057C86.1569 30.6244 86.3019 30.6853 86.4088 30.7935C86.5153 30.9034 86.5754 31.051 86.5761 31.2049L86.5571 33.6621C86.5541 34.2513 86.3218 34.8157 85.9105 35.2331C85.4991 35.6505 84.9418 35.8873 84.3591 35.8924H74.8101V44.6483C74.8116 44.725 74.798 44.8012 74.77 44.8725C74.742 44.9438 74.7002 45.0088 74.6471 45.0636C74.5939 45.1184 74.5305 45.1619 74.4606 45.1916C74.3906 45.2213 74.3155 45.2366 74.2396 45.2366ZM74.8101 34.7503H84.3591C84.6408 34.7463 84.9097 34.6302 85.1076 34.4273C85.3054 34.2244 85.4163 33.9509 85.4163 33.6659V31.7894H74.8101V34.7503Z" fill="#18354F"/>
<path d="M86.0057 39.3455H74.2396C74.0883 39.3455 73.9433 39.2847 73.8363 39.1766C73.7293 39.0684 73.6692 38.9217 73.6692 38.7687C73.6692 38.6157 73.7293 38.469 73.8363 38.3608C73.9433 38.2527 74.0883 38.1919 74.2396 38.1919H86.0057C86.157 38.1919 86.3021 38.2527 86.4091 38.3608C86.516 38.469 86.5761 38.6157 86.5761 38.7687C86.5761 38.9217 86.516 39.0684 86.4091 39.1766C86.3021 39.2847 86.157 39.3455 86.0057 39.3455Z" fill="#18354F"/>
<path d="M74.2396 45.4405C74.0883 45.4405 73.9433 45.3798 73.8363 45.2716C73.7293 45.1634 73.6692 45.0167 73.6692 44.8637C73.6692 44.7107 73.7293 44.564 73.8363 44.4559C73.9433 44.3477 74.0883 44.2869 74.2396 44.2869C76.3274 44.2869 77.6356 43.8293 78.7612 42.7026C78.8698 42.6012 79.0131 42.5464 79.1609 42.5497C79.3087 42.553 79.4495 42.6142 79.5535 42.7204C79.6576 42.8266 79.7168 42.9695 79.7187 43.119C79.7206 43.2685 79.665 43.4129 79.5636 43.5217C78.2174 44.8676 76.6278 45.4405 74.2396 45.4405Z" fill="#18354F"/>
<path d="M86.9526 45.4406C83.2106 45.4406 80.3889 42.8065 80.3889 39.3149V35.3734C80.3889 35.2205 80.449 35.0737 80.5559 34.9656C80.6629 34.8574 80.808 34.7966 80.9593 34.7966C81.1106 34.7966 81.2557 34.8574 81.3626 34.9656C81.4696 35.0737 81.5297 35.2205 81.5297 35.3734V39.3111C81.5297 41.6452 83.1916 44.0101 86.3822 44.26V42.9949C86.3822 42.8419 86.4423 42.6952 86.5492 42.5871C86.6562 42.4789 86.8013 42.4181 86.9526 42.4181C87.1039 42.4181 87.249 42.4789 87.3559 42.5871C87.4629 42.6952 87.523 42.8419 87.523 42.9949V44.8599C87.5235 44.936 87.5091 45.0114 87.4807 45.0818C87.4523 45.1522 87.4103 45.2163 87.3573 45.2703C87.3043 45.3242 87.2412 45.367 87.1718 45.3963C87.1023 45.4255 87.0278 45.4406 86.9526 45.4406Z" fill="#18354F"/>
<path d="M107.587 35.6348H95.8437C95.6925 35.6348 95.5474 35.574 95.4404 35.4659C95.3334 35.3577 95.2733 35.211 95.2733 35.058C95.2733 34.905 95.3334 34.7583 95.4404 34.6501C95.5474 34.542 95.6925 34.4812 95.8437 34.4812H107.587C107.738 34.4812 107.883 34.542 107.99 34.6501C108.097 34.7583 108.157 34.905 108.157 35.058C108.157 35.211 108.097 35.3577 107.99 35.4659C107.883 35.574 107.738 35.6348 107.587 35.6348Z" fill="#18354F"/>
<path d="M107.104 40.3147H96.3305C96.1792 40.3147 96.0341 40.254 95.9271 40.1458C95.8202 40.0376 95.7601 39.8909 95.7601 39.7379C95.7601 39.585 95.8202 39.4383 95.9271 39.3301C96.0341 39.2219 96.1792 39.1611 96.3305 39.1611H107.104C107.255 39.1611 107.4 39.2219 107.507 39.3301C107.614 39.4383 107.674 39.585 107.674 39.7379C107.674 39.8909 107.614 40.0376 107.507 40.1458C107.4 40.254 107.255 40.3147 107.104 40.3147Z" fill="#18354F"/>
<path d="M108.074 45.2481H95.3608C95.2095 45.2481 95.0644 45.1873 94.9574 45.0792C94.8504 44.971 94.7903 44.8243 94.7903 44.6713C94.7903 44.5183 94.8504 44.3716 94.9574 44.2634C95.0644 44.1552 95.2095 44.0945 95.3608 44.0945H108.074C108.225 44.0945 108.37 44.1552 108.477 44.2634C108.584 44.3716 108.644 44.5183 108.644 44.6713C108.644 44.8243 108.584 44.971 108.477 45.0792C108.37 45.1873 108.225 45.2481 108.074 45.2481Z" fill="#18354F"/>
<path d="M101.715 44.9944C101.564 44.9944 101.419 44.9336 101.312 44.8254C101.205 44.7173 101.145 44.5705 101.145 44.4176V35.3195C101.145 35.1665 101.205 35.0198 101.312 34.9116C101.419 34.8034 101.564 34.7427 101.715 34.7427C101.867 34.7427 102.012 34.8034 102.119 34.9116C102.226 35.0198 102.286 35.1665 102.286 35.3195V44.4176C102.286 44.5705 102.226 44.7173 102.119 44.8254C102.012 44.9336 101.867 44.9944 101.715 44.9944Z" fill="#18354F"/>
<path d="M102.757 33.3237C101.293 33.3237 100.095 32.2701 100.095 30.9704C100.095 30.8174 100.155 30.6707 100.262 30.5625C100.369 30.4543 100.514 30.3936 100.666 30.3936C100.817 30.3936 100.962 30.4543 101.069 30.5625C101.176 30.6707 101.236 30.8174 101.236 30.9704C101.236 31.6318 101.917 32.1701 102.757 32.1701C102.909 32.1701 103.054 32.2309 103.161 32.3391C103.268 32.4472 103.328 32.5939 103.328 32.7469C103.328 32.8999 103.268 33.0466 103.161 33.1548C103.054 33.2629 102.909 33.3237 102.757 33.3237Z" fill="#18354F"/>
<path d="M146.593 33.2315H137.599C137.448 33.2315 137.303 33.1707 137.196 33.0625C137.089 32.9544 137.029 32.8077 137.029 32.6547C137.029 32.5017 137.089 32.355 137.196 32.2468C137.303 32.1386 137.448 32.0779 137.599 32.0779H146.593C146.744 32.0779 146.889 32.1386 146.996 32.2468C147.103 32.355 147.163 32.5017 147.163 32.6547C147.163 32.8077 147.103 32.9544 146.996 33.0625C146.889 33.1707 146.744 33.2315 146.593 33.2315Z" fill="#18354F"/>
<path d="M142.113 37.9458H140.292C140.14 37.9458 139.995 37.8851 139.888 37.7769C139.781 37.6687 139.721 37.522 139.721 37.369C139.721 37.2161 139.781 37.0693 139.888 36.9612C139.995 36.853 140.14 36.7922 140.292 36.7922H142.113C142.265 36.7922 142.41 36.853 142.517 36.9612C142.624 37.0693 142.684 37.2161 142.684 37.369C142.684 37.522 142.624 37.6687 142.517 37.7769C142.41 37.8851 142.265 37.9458 142.113 37.9458Z" fill="#18354F"/>
<path d="M147.707 42.8678C147.556 42.8678 147.411 42.8071 147.304 42.6989C147.197 42.5907 147.137 42.444 147.137 42.291V35.1464C147.137 34.9934 147.197 34.8467 147.304 34.7385C147.411 34.6303 147.556 34.5696 147.707 34.5696C147.859 34.5696 148.004 34.6303 148.111 34.7385C148.218 34.8467 148.278 34.9934 148.278 35.1464V42.291C148.278 42.444 148.218 42.5907 148.111 42.6989C148.004 42.8071 147.859 42.8678 147.707 42.8678Z" fill="#18354F"/>
<path d="M148.951 45.4635C148.8 45.4635 148.654 45.4027 148.547 45.2945C148.44 45.1864 148.38 45.0396 148.38 44.8867C148.38 44.7337 148.44 44.587 148.547 44.4788C148.654 44.3706 148.8 44.3099 148.951 44.3099C149.05 44.3172 149.15 44.3041 149.244 44.2713C149.338 44.2385 149.425 44.1868 149.499 44.1193C149.573 44.0517 149.633 43.9697 149.674 43.8782C149.716 43.7867 149.739 43.6876 149.742 43.5869V30.9704C149.742 30.8174 149.802 30.6707 149.909 30.5625C150.016 30.4543 150.161 30.3936 150.312 30.3936C150.464 30.3936 150.609 30.4543 150.716 30.5625C150.823 30.6707 150.883 30.8174 150.883 30.9704V43.5677C150.883 43.8216 150.832 44.0729 150.735 44.3068C150.637 44.5406 150.494 44.7522 150.314 44.929C150.133 45.1058 149.92 45.2443 149.686 45.3361C149.452 45.4279 149.202 45.4712 148.951 45.4635Z" fill="#18354F"/>
<path d="M137.599 39.4301C137.448 39.4301 137.303 39.3694 137.196 39.2612C137.089 39.153 137.029 39.0063 137.029 38.8533C137.029 38.7003 137.089 38.5536 137.196 38.4455C137.303 38.3373 137.448 38.2765 137.599 38.2765C138.63 38.2765 139.322 37.692 139.322 36.8191V30.9704C139.322 30.8174 139.382 30.6707 139.489 30.5625C139.596 30.4543 139.741 30.3936 139.892 30.3936C140.044 30.3936 140.189 30.4543 140.296 30.5625C140.403 30.6707 140.463 30.8174 140.463 30.9704V36.8191C140.463 38.3303 139.257 39.4301 137.599 39.4301Z" fill="#18354F"/>
<path d="M137.599 45.4635C137.448 45.4635 137.303 45.4027 137.196 45.2946C137.089 45.1864 137.029 45.0397 137.029 44.8867C137.029 44.7337 137.089 44.587 137.196 44.4788C137.303 44.3707 137.448 44.3099 137.599 44.3099C140.934 44.3099 144.532 41.9143 144.532 38.0497V35.1657C144.532 35.0127 144.592 34.866 144.699 34.7578C144.806 34.6496 144.951 34.5889 145.102 34.5889C145.254 34.5889 145.399 34.6496 145.506 34.7578C145.613 34.866 145.673 35.0127 145.673 35.1657V38.0497C145.673 42.6103 141.482 45.4635 137.599 45.4635Z" fill="#18354F"/>
<path d="M146.593 45.4634C145.805 45.4828 145.022 45.3197 144.306 44.9865C143.589 44.6532 142.958 44.1587 142.459 43.5408C142.365 43.4211 142.322 43.2688 142.338 43.1169C142.355 42.965 142.43 42.8258 142.547 42.7294C142.605 42.6819 142.672 42.6465 142.744 42.6252C142.816 42.604 142.892 42.5972 142.966 42.6054C143.041 42.6137 143.113 42.6366 143.179 42.6731C143.244 42.7095 143.302 42.7587 143.349 42.8178C143.745 43.2946 144.242 43.6742 144.804 43.928C145.366 44.1819 145.978 44.3032 146.593 44.2829C146.744 44.2829 146.889 44.3437 146.996 44.4519C147.103 44.56 147.163 44.7067 147.163 44.8597C147.163 45.0127 147.103 45.1594 146.996 45.2676C146.889 45.3757 146.744 45.4365 146.593 45.4365V45.4634Z" fill="#18354F"/>
<path d="M137.599 42.4371C137.448 42.4371 137.303 42.3764 137.196 42.2682C137.089 42.16 137.029 42.0133 137.029 41.8603C137.029 41.7074 137.089 41.5607 137.196 41.4525C137.303 41.3443 137.448 41.2835 137.599 41.2835C140.037 41.2835 141.927 39.2878 141.927 37.5689V35.1464C141.927 34.9934 141.987 34.8467 142.094 34.7385C142.201 34.6303 142.346 34.5696 142.497 34.5696C142.649 34.5696 142.794 34.6303 142.901 34.7385C143.008 34.8467 143.068 34.9934 143.068 35.1464V37.5689C143.068 40.1184 140.463 42.4371 137.599 42.4371Z" fill="#18354F"/>
<path d="M118.307 42.268H118.17C117.573 42.2691 117 42.0303 116.576 41.6042C116.153 41.1782 115.914 40.5996 115.911 39.9954V34.412C115.911 34.259 115.972 34.1123 116.079 34.0041C116.186 33.896 116.331 33.8352 116.482 33.8352H120C120.151 33.8352 120.296 33.896 120.403 34.0041C120.51 34.1123 120.57 34.259 120.57 34.412V39.9954C120.567 40.5999 120.327 41.1785 119.903 41.6045C119.479 42.0305 118.905 42.2691 118.307 42.268ZM117.052 34.9888V39.9878C117.054 40.2859 117.173 40.5711 117.383 40.7808C117.592 40.9906 117.876 41.1078 118.17 41.1068H118.307C118.455 41.1103 118.602 41.0841 118.74 41.0296C118.878 40.975 119.004 40.8933 119.11 40.7891C119.216 40.6849 119.301 40.5604 119.359 40.4229C119.417 40.2853 119.447 40.1374 119.448 39.9878V34.9888H117.052Z" fill="#18354F"/>
<path d="M120 38.542H116.809C116.658 38.542 116.513 38.4813 116.406 38.3731C116.299 38.2649 116.239 38.1182 116.239 37.9652C116.239 37.8122 116.299 37.6655 116.406 37.5574C116.513 37.4492 116.658 37.3884 116.809 37.3884H120C120.151 37.3884 120.296 37.4492 120.403 37.5574C120.51 37.6655 120.57 37.8122 120.57 37.9652C120.57 38.1182 120.51 38.2649 120.403 38.3731C120.296 38.4813 120.151 38.542 120 38.542Z" fill="#18354F"/>
<path d="M129.191 33.3008H122.068C121.917 33.3008 121.772 33.2401 121.665 33.1319C121.558 33.0237 121.498 32.877 121.498 32.724C121.498 32.571 121.558 32.4243 121.665 32.3162C121.772 32.208 121.917 32.1472 122.068 32.1472H129.191C129.342 32.1472 129.487 32.208 129.594 32.3162C129.701 32.4243 129.761 32.571 129.761 32.724C129.761 32.877 129.701 33.0237 129.594 33.1319C129.487 33.2401 129.342 33.3008 129.191 33.3008Z" fill="#18354F"/>
<path d="M125.567 35.7963C125.416 35.7963 125.271 35.7355 125.164 35.6273C125.057 35.5192 124.997 35.3724 124.997 35.2195V30.9704C124.997 30.8174 125.057 30.6707 125.164 30.5625C125.271 30.4543 125.416 30.3936 125.567 30.3936C125.718 30.3936 125.863 30.4543 125.97 30.5625C126.077 30.6707 126.137 30.8174 126.137 30.9704V35.2195C126.137 35.3724 126.077 35.5192 125.97 35.6273C125.863 35.7355 125.718 35.7963 125.567 35.7963Z" fill="#18354F"/>
<path d="M129.191 36.1692H122.068C121.917 36.1692 121.772 36.1085 121.665 36.0003C121.558 35.8921 121.498 35.7454 121.498 35.5924C121.498 35.4394 121.558 35.2927 121.665 35.1846C121.772 35.0764 121.917 35.0156 122.068 35.0156H129.191C129.342 35.0156 129.487 35.0764 129.594 35.1846C129.701 35.2927 129.761 35.4394 129.761 35.5924C129.761 35.7454 129.701 35.8921 129.594 36.0003C129.487 36.1085 129.342 36.1692 129.191 36.1692Z" fill="#18354F"/>
<path d="M129.191 39.0418H122.068C121.917 39.0418 121.772 38.981 121.665 38.8728C121.558 38.7647 121.498 38.618 121.498 38.465C121.498 38.312 121.558 38.1653 121.665 38.0571C121.772 37.949 121.917 37.8882 122.068 37.8882H129.191C129.342 37.8882 129.487 37.949 129.594 38.0571C129.701 38.1653 129.761 38.312 129.761 38.465C129.761 38.618 129.701 38.7647 129.594 38.8728C129.487 38.981 129.342 39.0418 129.191 39.0418Z" fill="#18354F"/>
<path d="M124.734 43.1294C123.255 43.1294 122.053 42.0988 122.053 40.8222C122.053 40.6692 122.113 40.5225 122.22 40.4143C122.327 40.3061 122.472 40.2454 122.624 40.2454C122.775 40.2454 122.92 40.3061 123.027 40.4143C123.134 40.5225 123.194 40.6692 123.194 40.8222C123.194 41.4451 123.897 41.9758 124.734 41.9758C124.885 41.9758 125.03 42.0366 125.137 42.1447C125.244 42.2529 125.305 42.3996 125.305 42.5526C125.305 42.7056 125.244 42.8523 125.137 42.9604C125.03 43.0686 124.885 43.1294 124.734 43.1294Z" fill="#18354F"/>
<path d="M125.898 45.4635H125.518C125.366 45.4635 125.221 45.4028 125.114 45.2946C125.007 45.1864 124.947 45.0397 124.947 44.8867C124.947 44.7338 125.007 44.587 125.114 44.4789C125.221 44.3707 125.366 44.3099 125.518 44.3099H125.898C126.184 44.312 126.459 44.1994 126.662 43.9969C126.866 43.7943 126.982 43.5184 126.985 43.2294V35.9848C126.985 35.8318 127.046 35.6851 127.152 35.5769C127.259 35.4687 127.405 35.408 127.556 35.408C127.707 35.408 127.852 35.4687 127.959 35.5769C128.066 35.6851 128.126 35.8318 128.126 35.9848V43.2332C128.122 43.8275 127.885 44.3959 127.468 44.814C127.05 45.232 126.486 45.4656 125.898 45.4635Z" fill="#18354F"/>
<path d="M158.964 45.2405C158.812 45.2405 158.667 45.1798 158.56 45.0716C158.453 44.9634 158.393 44.8167 158.393 44.6637V35.2772C158.393 35.1243 158.453 34.9775 158.56 34.8694C158.667 34.7612 158.812 34.7004 158.964 34.7004H163.839C163.99 34.7014 164.135 34.7625 164.241 34.8705C164.348 34.9784 164.408 35.1246 164.409 35.2772V38.1574C164.417 38.4628 164.361 38.7664 164.247 39.0489C164.132 39.3315 163.96 39.5867 163.742 39.7983C163.524 40.0099 163.265 40.1733 162.981 40.2781C162.697 40.3829 162.395 40.4268 162.093 40.4069H160.671C160.52 40.4069 160.375 40.3462 160.268 40.238C160.161 40.1298 160.101 39.9831 160.101 39.8301C160.101 39.6772 160.161 39.5304 160.268 39.4223C160.375 39.3141 160.52 39.2533 160.671 39.2533H162.093C163.181 39.2533 163.269 38.415 163.269 38.1574V35.8502H159.534V44.6599C159.535 44.736 159.52 44.8114 159.492 44.8818C159.463 44.9522 159.421 45.0163 159.368 45.0702C159.315 45.1242 159.252 45.167 159.183 45.1963C159.113 45.2255 159.039 45.2405 158.964 45.2405Z" fill="#18354F"/>
<path d="M161.892 38.1766H160.671C160.52 38.1766 160.375 38.1158 160.268 38.0076C160.161 37.8994 160.101 37.7527 160.101 37.5998C160.101 37.4468 160.161 37.3001 160.268 37.1919C160.375 37.0837 160.52 37.0229 160.671 37.0229H161.892C162.043 37.0229 162.188 37.0837 162.295 37.1919C162.402 37.3001 162.462 37.4468 162.462 37.5998C162.462 37.7527 162.402 37.8994 162.295 38.0076C162.188 38.1158 162.043 38.1766 161.892 38.1766Z" fill="#18354F"/>
<path d="M171.43 34.412C171.278 34.412 171.133 34.3512 171.026 34.2431C170.919 34.1349 170.859 33.9882 170.859 33.8352V33.0162H165.809V33.8352C165.809 33.9882 165.749 34.1349 165.642 34.2431C165.535 34.3512 165.39 34.412 165.238 34.412C165.087 34.412 164.942 34.3512 164.835 34.2431C164.728 34.1349 164.668 33.9882 164.668 33.8352V32.4394C164.668 32.2864 164.728 32.1397 164.835 32.0315C164.942 31.9233 165.087 31.8625 165.238 31.8625H171.43C171.581 31.8625 171.726 31.9233 171.833 32.0315C171.94 32.1397 172 32.2864 172 32.4394V33.8352C172 33.9882 171.94 34.1349 171.833 34.2431C171.726 34.3512 171.581 34.412 171.43 34.412Z" fill="#18354F"/>
<path d="M164.079 33.6813C162.303 33.6813 160.854 32.4662 160.854 30.9704C160.854 30.8174 160.914 30.6707 161.021 30.5625C161.128 30.4543 161.273 30.3936 161.424 30.3936C161.576 30.3936 161.721 30.4543 161.828 30.5625C161.935 30.6707 161.995 30.8174 161.995 30.9704C161.995 31.8163 162.949 32.5277 164.079 32.5277C164.23 32.5277 164.375 32.5885 164.482 32.6967C164.589 32.8048 164.649 32.9515 164.649 33.1045C164.649 33.2575 164.589 33.4042 164.482 33.5124C164.375 33.6206 164.23 33.6813 164.079 33.6813Z" fill="#18354F"/>
<path d="M158.72 33.6813C158.569 33.6813 158.424 33.6206 158.317 33.5124C158.21 33.4042 158.15 33.2575 158.15 33.1045C158.15 32.9515 158.21 32.8048 158.317 32.6967C158.424 32.5885 158.569 32.5277 158.72 32.5277C159.861 32.5277 160.804 31.8163 160.804 30.9704C160.804 30.8174 160.864 30.6707 160.971 30.5625C161.078 30.4543 161.223 30.3936 161.375 30.3936C161.526 30.3936 161.671 30.4543 161.778 30.5625C161.885 30.6707 161.945 30.8174 161.945 30.9704C161.945 32.4662 160.496 33.6813 158.72 33.6813Z" fill="#18354F"/>
<path d="M161.489 35.6157C161.338 35.6157 161.193 35.5549 161.086 35.4467C160.979 35.3386 160.918 35.1918 160.918 35.0389V34.0775C160.918 33.9246 160.979 33.7778 161.086 33.6697C161.193 33.5615 161.338 33.5007 161.489 33.5007C161.64 33.5007 161.785 33.5615 161.892 33.6697C161.999 33.7778 162.059 33.9246 162.059 34.0775V35.0389C162.058 35.1915 161.998 35.3377 161.891 35.4456C161.784 35.5536 161.64 35.6147 161.489 35.6157Z" fill="#18354F"/>
<path d="M168.353 40.4645H168.319C167.558 40.4635 166.828 40.1573 166.29 39.613C165.751 39.0688 165.449 38.3309 165.448 37.5613V35.254C165.448 35.1011 165.508 34.9544 165.615 34.8462C165.722 34.738 165.867 34.6772 166.018 34.6772H170.654C170.805 34.6772 170.95 34.738 171.057 34.8462C171.164 34.9544 171.224 35.1011 171.224 35.254V37.5613C171.223 38.3309 170.92 39.0688 170.382 39.613C169.844 40.1573 169.114 40.4635 168.353 40.4645ZM166.588 35.8501V37.5689C166.591 38.0316 166.774 38.4747 167.098 38.8011C167.422 39.1276 167.861 39.3109 168.319 39.3109H168.353C168.812 39.3109 169.252 39.1265 169.577 38.7984C169.901 38.4703 170.083 38.0253 170.083 37.5613V35.8501H166.588Z" fill="#18354F"/>
<path d="M170.654 45.4635H166.018C165.867 45.4635 165.722 45.4027 165.615 45.2946C165.508 45.1864 165.448 45.0397 165.448 44.8867V42.5795C165.448 41.8095 165.75 41.0711 166.289 40.5266C166.827 39.9821 167.557 39.6763 168.319 39.6763H168.353C169.114 39.6773 169.844 39.9835 170.382 40.5277C170.92 41.072 171.223 41.8098 171.224 42.5795V44.8867C171.224 45.0397 171.164 45.1864 171.057 45.2946C170.95 45.4027 170.805 45.4635 170.654 45.4635ZM166.588 44.3099H170.083V42.5949C170.083 42.1309 169.901 41.6858 169.577 41.3577C169.252 41.0296 168.812 40.8452 168.353 40.8452H168.319C167.86 40.8452 167.42 41.0296 167.095 41.3577C166.771 41.6858 166.588 42.1309 166.588 42.5949V44.3099Z" fill="#18354F"/>
<path d="M163.839 45.4367C162.287 45.4367 161.177 44.21 161.177 42.5181V41.7221C161.177 41.5691 161.237 41.4224 161.344 41.3142C161.451 41.206 161.596 41.1453 161.747 41.1453C161.899 41.1453 162.044 41.206 162.151 41.3142C162.258 41.4224 162.318 41.5691 162.318 41.7221V42.5181C162.318 43.3948 162.793 44.2831 163.839 44.2831C163.99 44.2831 164.135 44.3438 164.242 44.452C164.349 44.5602 164.409 44.7069 164.409 44.8599C164.409 45.0128 164.349 45.1596 164.242 45.2677C164.135 45.3759 163.99 45.4367 163.839 45.4367Z" fill="#18354F"/>
<path d="M158.964 45.4366C158.812 45.4366 158.667 45.3758 158.56 45.2676C158.453 45.1595 158.393 45.0128 158.393 44.8598C158.393 44.7068 158.453 44.5601 158.56 44.4519C158.667 44.3438 158.812 44.283 158.964 44.283C160.253 44.283 161.154 43.5562 161.154 42.518C161.154 42.365 161.214 42.2183 161.321 42.1101C161.428 42.0019 161.573 41.9412 161.725 41.9412C161.876 41.9412 162.021 42.0019 162.128 42.1101C162.235 42.2183 162.295 42.365 162.295 42.518C162.295 44.2099 160.892 45.4366 158.964 45.4366Z" fill="#18354F"/>
<path d="M168.334 32.5085C168.183 32.5085 168.038 32.4477 167.931 32.3396C167.824 32.2314 167.764 32.0847 167.764 31.9317V30.9704C167.764 30.8174 167.824 30.6707 167.931 30.5625C168.038 30.4543 168.183 30.3936 168.334 30.3936C168.485 30.3936 168.63 30.4543 168.737 30.5625C168.844 30.6707 168.904 30.8174 168.904 30.9704V31.9317C168.904 32.0847 168.844 32.2314 168.737 32.3396C168.63 32.4477 168.485 32.5085 168.334 32.5085Z" fill="#18354F"/>
</g>
<defs>
<clipPath id="clip0_238_29894">
<rect width="172" height="55" fill="white"/>
</clipPath>
</defs>
</svg>
