<svg width="122" height="149" viewBox="0 0 122 149" fill="none" xmlns="http://www.w3.org/2000/svg">
<g style="mix-blend-mode:multiply">
<path d="M68.0015 0.151123H80.5432V9.02731H121.071V17.9035L68.0015 28.4291V0.151123Z" fill="#75889A"/>
</g>
<g style="mix-blend-mode:multiply">
<path d="M71.5394 105.493V117.158L77.0169 131.447L121.071 148.61V95.5891H89.2246C87.1323 98.3611 84.4797 100.673 81.4352 102.378C78.3907 104.083 75.0208 105.143 71.5394 105.493V105.493Z" fill="#75889A"/>
</g>
<g style="mix-blend-mode:multiply">
<path d="M64.4636 55.4926V31.9639H10.1789V46.5686L0.78064 51.4224V76.1482H44.7502C45.6967 71.0478 48.078 66.3581 51.5896 62.6787C55.1011 58.9993 59.5835 56.4973 64.4636 55.4926V55.4926Z" fill="#75889A"/>
</g>
<g style="mix-blend-mode:multiply">
<path d="M89.1146 65.5437H121.071V21.3594L69.7705 32.1624V55.108C73.5578 55.2756 77.2603 56.2997 80.6072 58.1053C83.9541 59.9108 86.8608 62.4523 89.1146 65.5437Z" fill="#75889A"/>
</g>
<g style="mix-blend-mode:multiply">
<path d="M74.657 66.2089C73.421 65.8444 72.143 65.6211 70.8505 65.5439C70.487 65.5439 70.1448 65.5439 69.7813 65.5439C66.3913 65.5419 63.089 66.5589 60.3545 68.4471C57.6201 70.3353 55.5961 72.9962 54.5768 76.0429C54.0931 77.511 53.848 79.0397 53.8497 80.5769C53.8447 84.1805 55.2189 87.665 57.7204 90.3907C58.2742 90.9765 58.867 91.5284 59.4953 92.0431C61.2644 93.459 63.3424 94.4909 65.5819 95.0655C67.8214 95.6401 70.1677 95.7434 72.4544 95.3681C73.0891 95.267 73.7174 95.1325 74.3362 94.9651C77.5916 94.0418 80.4488 92.1626 82.4912 89.6016C84.5337 87.0406 85.6545 83.9318 85.6903 80.7283C85.7261 77.5249 84.675 74.3945 82.6903 71.7936C80.7055 69.1926 77.891 67.2571 74.657 66.2694V66.2089Z" fill="#75889A"/>
</g>
</svg>
